PathFileType	4	(X/Y/Z)	RBDS024\RBDS024runT35.trc
DataRate	CameraRate	NumFrames	NumMarkers	Units	OrigDataRate	OrigDataStartFrame	OrigNumFrames
150.000000	150.000000	5	33	mm	150.000000	2250	4500
Frame#	Time	L.ASIS			L.Heel.Bottom			L.Heel.Lateral			L.Heel.Top			L.Iliac.Crest			L.MT1			L.MT5			L.PSIS			L.Shank.Bottom.Lateral			L.Shank.Bottom.Medial			L.Shank.Top.Lateral			L.Shank.Top.Medial			L.Thigh.Bottom.Lateral			L.Thigh.Bottom.Medial			L.Thigh.Top.Lateral			L.Thigh.Top.Medial			R.ASIS			R.ASY			R.Heel.Bottom			R.Heel.Lateral			R.Heel.Top			R.Iliac.Crest			R.MT1			R.MT5			R.PSIS			R.Shank.Bottom.Lateral			R.Shank.Bottom.Medial			R.Shank.Top.Lateral			R.Shank.Top.Medial			R.Thigh.Bottom.Lateral			R.Thigh.Bottom.Medial			R.Thigh.Top.Lateral			R.Thigh.Top.Medial			
		X1	Y1	Z1	X2	Y2	Z2	X3	Y3	Z3	X4	Y4	Z4	X5	Y5	Z5	X6	Y6	Z6	X7	Y7	Z7	X8	Y8	Z8	X9	Y9	Z9	X10	Y10	Z10	X11	Y11	Z11	X12	Y12	Z12	X13	Y13	Z13	X14	Y14	Z14	X15	Y15	Z15	X16	Y16	Z16	X17	Y17	Z17	X18	Y18	Z18	X19	Y19	Z19	X20	Y20	Z20	X21	Y21	Z21	X22	Y22	Z22	X23	Y23	Z23	X24	Y24	Z24	X25	Y25	Z25	X26	Y26	Z26	X27	Y27	Z27	X28	Y28	Z28	X29	Y29	Z29	X30	Y30	Z30	X31	Y31	Z31	X32	Y32	Z32	X33	Y33	Z33	

2251	15	2158.73795053314	952.8811721906379	920.8238872984564	1648.460855087333	110.1928478764297	1052.229768621599	1672.507749871217	116.1350885530857	1006.067704063023	1672.36312580458	147.8475049491132	1047.906138806445	2063.747756531452	1026.975481289862	883.8976720344868	1859.222425399419	42.14771192154006	1071.846491688503	1810.791237005574	42.63752105502446	960.6665486668675	1990.714075020122	1005.815362933964	1012.963717675786	1783.335664425191	200.8808539286156	973.0696312129538	1750.731674409798	230.7345762641545	998.7600045863139	1823.134285831388	264.4485166189338	942.5689232850848	1792.848972927479	298.6455078590009	969.120973598409	1997.458896504718	591.3340874293241	886.085614105834	1943.411415034619	598.6270749219187	932.4714536053934	1997.021412631214	700.9451347934145	873.4352290960043	1948.9521047495	708.5186312434248	921.5664927709951	2182.769044210963	950.7377910796303	1155.166233233885	2097.189112853827	208.5881662986042	1125.782418213899	1938.613740094689	312.759158370804	1091.089942386576	1968.426904792202	305.2853732141347	1140.308568036781	1977.097582805263	334.3661355663206	1093.205381359306	2120.153322549108	1026.505260404867	1218.082295994055	2086.99175387484	151.369358824082	1077.659522876981	2057.349510805972	177.8573041844126	1185.684228227313	2002.786602110511	1002.010555561621	1115.086142564407	2084.139579625106	365.9205918511682	1155.447502430999	2063.064607686902	395.3612447462543	1113.408760208108	2137.592889634566	426.1430598211211	1168.014738474027	2116.615167783008	453.5070097889626	1126.826365662467	2286.076881180521	642.9905165393544	1202.699061013792	2238.769103140239	606.2775127359515	1161.173874085425	2207.41207840795	716.1295137593336	1224.006111867913	2160.986476884708	677.9449845843702	1189.057859639619	
2252	15.00666666666667	2161.343870067282	956.9614629166236	922.3528164767449	1631.692862165275	122.1340351136462	1050.866030455989	1656.023799591088	126.0845143259887	1004.598617702266	1657.343057815558	158.3740485806095	1046.000767747206	2070.000664285913	1031.87610672641	883.6251708745561	1837.92660096361	42.66425458655595	1071.446021942144	1789.561600683149	44.11436952187193	960.3527011474587	1992.993905886276	1012.013761775367	1012.029156405449	1766.851390366288	209.7344545217835	971.7401670711606	1734.8520930287	239.0930150392483	998.622385012379	1806.438896140213	273.775019489609	941.9951520458156	1776.750338606244	307.4731376040875	969.8452635740928	1987.669927999176	599.3517646281888	886.9568480204961	1934.275580055171	608.8921712600496	933.7992850953098	1991.520604941907	708.9237086998389	874.1869730309157	1944.081390754468	718.4096533807073	922.6118002230842	2184.101631093833	958.4971544362772	1155.396281651611	2121.850155521325	199.0882969313557	1124.087019660092	1955.724592584618	290.8331203736016	1088.337791048486	1985.721308359937	285.5822551406927	1137.723313611043	1992.46656107958	315.3677232384454	1090.67697897085	2121.329407596379	1034.505631767518	1218.076884174551	2116.456192755117	141.2352681240374	1075.915195572958	2084.075173208826	165.4041216326553	1183.769812753379	2003.897832930013	1008.719925355545	1114.638956234992	2096.993126327503	355.0568387517032	1153.079546110969	2074.43952925123	382.6436729365633	1110.452278286077	2146.111884122499	418.9482166462425	1165.515502934385	2123.871932813876	444.4147384240702	1123.757065147593	2287.133095068864	650.372882900151	1201.715735358465	2239.63173457854	613.5750363845513	1160.463965847418	2208.313074454768	723.1940860122769	1224.021779566338	2161.803722802044	685.0572405117684	1189.145222452369	
2253	15.01333333333333	2164.137925583737	961.0045835800992	924.0858396862063	1616.267942938731	134.8334741642379	1049.279288178339	1640.730106018407	136.6594596190714	1002.903909750645	1643.749833642108	169.4122087249864	1043.813407822534	2076.566415111197	1036.588483444582	883.5054939770121	1817.149869575042	43.45245124960456	1070.838738692892	1768.687513127223	45.91795714236247	959.8906950375384	1995.37095946062	1018.198036852409	1011.06923970235	1751.513013684009	218.8224434150793	970.1087513558884	1720.127031065299	247.6004764460473	998.2233121403273	1790.831848302183	283.3935986282453	941.1809556214509	1761.746899004076	316.504883548713	970.3893873142758	1978.46893754465	607.6731425919903	887.6316021115556	1925.876107687118	619.272513362916	935.0189184528796	1986.442597443612	717.0821256119896	874.8954664967856	1939.804407942484	728.2975854352665	923.7151273100638	2185.391753704869	966.3485477763033	1155.791396758965	2146.868400348134	190.0998927545793	1122.188597998331	1974.256374914364	269.0670326695786	1085.486750586763	2004.226714118273	265.9971045946752	1135.061139660316	2009.046915075894	296.3490027850784	1088.046280465926	2122.396992324389	1042.69294975799	1217.981926792193	2146.28862380606	132.0248570835595	1073.94601134132	2111.366892215665	153.6148547879837	1181.678726662045	2005.131008439442	1015.342140928415	1114.097770741198	2110.412294862534	343.8782480846923	1150.698778412994	2086.516364293897	369.5764003225543	1107.527144836459	2154.957801040574	411.1302578702813	1163.060138021219	2131.567522012379	434.683783675174	1120.795667166683	2287.604457716858	657.1435995291149	1200.763874491648	2239.774310197643	620.3144337702668	1159.882505313851	2208.859402896864	729.8659222630239	1224.025711953135	2162.130083185283	691.8888320658075	1189.29197909072	
2254	15.02	2167.021263747659	964.9783809265685	925.9636814039131	1602.225744339775	148.2255881607651	1047.504700850363	1626.618141321541	147.8376215196769	1001.017038363697	1631.581283269854	180.8964285208288	1041.380123588454	2083.261325902975	1041.105436179352	883.5661899231125	1796.883487334755	44.63117012392569	1069.979269347661	1748.140620377159	48.19250178741817	959.2708237322677	1997.779757875597	1024.309456406846	1010.122623859045	1737.336143074416	228.0277934377137	968.1962913148939	1706.559792223925	256.1673195941686	997.5487728098262	1776.370762018498	293.1613488925606	940.1427411099639	1747.882879286108	325.6222925563571	970.7233845459758	1969.874285591629	616.1560164217137	888.1329906016582	1918.212350515839	629.5915499506225	936.1482219130404	1981.747732546873	725.2964380129827	875.5867900158871	1936.063253748182	738.0321846415153	924.9045593575378	2186.587075276875	974.1450049614696	1156.31977086969	2172.203811792755	181.6971026731906	1120.056373390036	1994.167522424106	247.6257781967678	1082.598495015769	2023.94077323425	246.6867744650634	1132.367068724159	2026.809200198818	277.4675249205836	1085.361546981916	2123.306341164743	1050.958099362053	1217.775535709193	2176.377699456722	123.8073511953172	1071.714404000429	2139.2061649391	142.5725967085899	1179.385556130348	2006.467640323934	1021.803987544482	1113.486702756866	2124.440391212415	332.4571419927784	1148.35025953745	2099.304459700209	356.2594507578365	1104.716585082856	2164.215579264875	402.720182577096	1160.710043721464	2139.743037146886	424.3779627034292	1118.043007837469	2287.498343749201	663.2089432518399	1199.822141039432	2239.184235494634	626.4099694716811	1159.448633024851	2209.080934533335	736.0668903863417	1223.992921521543	2161.983982481982	698.3625938665544	1189.502494338608	
2255	15.02666666666667	2169.893887431307	968.8614190965664	927.9078279065635	1589.553060845237	162.241157349419	1045.604269950618	1613.636090263241	159.6041147692823	998.9967646521197	1620.777868971981	192.7730079439435	1038.768567842817	2089.894848230224	1045.444378190881	883.8163498198459	1777.103820746715	46.33147304760965	1068.827887855604	1727.895618075233	51.11012198862355	958.4857499131825	2000.161144838566	1030.294898378813	1009.22713269343	1724.29471586481	237.2602346875053	966.0501792598316	1694.114401796974	264.739873399667	996.6079775322975	1763.081224270583	302.9530269264511	938.9155989947017	1735.172062156238	334.7337870060621	970.8312923945049	1961.910949346209	624.6507637733379	888.4973741124788	1911.279027134	639.6770192964655	937.2084446221486	1977.406226794294	733.4388882444994	876.2847480322225	1932.79794572846	747.4700320046016	926.1960990068566	2187.647958756859	981.7360091303306	1156.930392876108	2197.803344868947	173.9719703887688	1117.656052368687	2015.390236677333	226.6771956383388	1079.732060020496	2044.841357154708	227.810685498848	1129.680216649967	2045.699224284228	258.8858660836711	1082.676591669645	2124.025750686886	1059.18091474072	1217.438655458942	2206.599886482856	116.6677843264834	1069.168602018254	2167.563300065153	132.3774423440433	1176.849295326561	2007.888885620504	1028.04226866236	1112.836474551893	2139.102492524994	320.891174959172	1146.077738607596	2112.790026332587	342.8095683779898	1102.098782289764	2173.949400672462	393.7817471799124	1158.529505216595	2148.418107337959	413.5836146032745	1115.596582085508	2286.809913941817	668.4809234747205	1198.875513914277	2237.841745374963	631.7893184358662	1159.177634972427	2208.998400027473	741.7262636124077	1223.90209767845	2161.377901572438	704.4114996092369	1189.777902355391	
